<svg width="25" height="31" viewBox="0 0 25 31" fill="none" xmlns="http://www.w3.org/2000/svg">
<path d="M21.25 6.75001H18.3334C18.3334 3.52709 15.723 0.916672 12.5 0.916672C9.27712 0.916672 6.66671 3.52709 6.66671 6.75001H3.75004C2.14587 6.75001 0.833374 8.06251 0.833374 9.66667V27.1667C0.833374 28.7708 2.14587 30.0833 3.75004 30.0833H21.25C22.8542 30.0833 24.1667 28.7708 24.1667 27.1667V9.66667C24.1667 8.06251 22.8542 6.75001 21.25 6.75001ZM12.5 3.83334C14.1042 3.83334 15.4167 5.14584 15.4167 6.75001H9.58337C9.58337 5.14584 10.8959 3.83334 12.5 3.83334ZM21.25 27.1667H3.75004V9.66667H6.66671V12.5833C6.66671 13.3854 7.32296 14.0417 8.12504 14.0417C8.92712 14.0417 9.58337 13.3854 9.58337 12.5833V9.66667H15.4167V12.5833C15.4167 13.3854 16.073 14.0417 16.875 14.0417C17.6771 14.0417 18.3334 13.3854 18.3334 12.5833V9.66667H21.25V27.1667Z" fill="#2C2C2C"/>
</svg>
